<mxfile host="app.diagrams.net" modified="2020-11-18T03:43:19.500Z" agent="5.0 (Windows NT 10.0; Win64; x64) AppleWebKit/537.36 (KHTML, like Gecko) Chrome/86.0.4240.198 Safari/537.36" etag="AXQ2Bx74l6WlzceFx-rK" version="13.9.9" type="github">
  <diagram id="tjzp-NtcM_6P5M70Z-q1" name="Page-1">
    <mxGraphModel dx="1433" dy="838" grid="1" gridSize="10" guides="1" tooltips="1" connect="1" arrows="1" fold="1" page="1" pageScale="1" pageWidth="827" pageHeight="1169" math="0" shadow="0">
      <root>
        <mxCell id="0" />
        <mxCell id="1" parent="0" />
        <mxCell id="mbeKiCljW2zm7E6OZhqD-1" value="Cloud Server" style="ellipse;whiteSpace=wrap;html=1;" vertex="1" parent="1">
          <mxGeometry x="353" y="140" width="120" height="80" as="geometry" />
        </mxCell>
        <mxCell id="mbeKiCljW2zm7E6OZhqD-2" value="User" style="shape=umlActor;verticalLabelPosition=bottom;verticalAlign=top;html=1;outlineConnect=0;" vertex="1" parent="1">
          <mxGeometry x="110" y="350" width="30" height="60" as="geometry" />
        </mxCell>
        <mxCell id="mbeKiCljW2zm7E6OZhqD-3" value="User" style="shape=umlActor;verticalLabelPosition=bottom;verticalAlign=top;html=1;outlineConnect=0;" vertex="1" parent="1">
          <mxGeometry x="181" y="350" width="30" height="60" as="geometry" />
        </mxCell>
        <mxCell id="mbeKiCljW2zm7E6OZhqD-4" value="User" style="shape=umlActor;verticalLabelPosition=bottom;verticalAlign=top;html=1;outlineConnect=0;" vertex="1" parent="1">
          <mxGeometry x="590" y="360" width="30" height="60" as="geometry" />
        </mxCell>
        <mxCell id="mbeKiCljW2zm7E6OZhqD-11" value="User" style="shape=umlActor;verticalLabelPosition=bottom;verticalAlign=top;html=1;outlineConnect=0;" vertex="1" parent="1">
          <mxGeometry x="637" y="360" width="30" height="60" as="geometry" />
        </mxCell>
        <mxCell id="mbeKiCljW2zm7E6OZhqD-12" value="User" style="shape=umlActor;verticalLabelPosition=bottom;verticalAlign=top;html=1;outlineConnect=0;" vertex="1" parent="1">
          <mxGeometry x="677" y="360" width="30" height="60" as="geometry" />
        </mxCell>
        <mxCell id="mbeKiCljW2zm7E6OZhqD-14" value="Family&lt;br&gt;&lt;br&gt;&lt;br&gt;&lt;br&gt;&lt;br&gt;&lt;br&gt;&lt;br&gt;&lt;br&gt;&lt;br&gt;" style="ellipse;whiteSpace=wrap;html=1;fillColor=none;align=center;" vertex="1" parent="1">
          <mxGeometry x="40" y="300" width="250" height="180" as="geometry" />
        </mxCell>
        <mxCell id="mbeKiCljW2zm7E6OZhqD-15" value="Family&lt;br&gt;&lt;br&gt;&lt;br&gt;&lt;br&gt;&lt;br&gt;&lt;br&gt;&lt;br&gt;&lt;br&gt;&lt;br&gt;" style="ellipse;whiteSpace=wrap;html=1;fillColor=none;align=center;" vertex="1" parent="1">
          <mxGeometry x="520" y="300" width="250" height="180" as="geometry" />
        </mxCell>
        <mxCell id="mbeKiCljW2zm7E6OZhqD-17" value="" style="endArrow=none;dashed=1;html=1;" edge="1" parent="1">
          <mxGeometry width="50" height="50" relative="1" as="geometry">
            <mxPoint x="200" y="350" as="sourcePoint" />
            <mxPoint x="360" y="200" as="targetPoint" />
          </mxGeometry>
        </mxCell>
        <mxCell id="mbeKiCljW2zm7E6OZhqD-18" value="" style="endArrow=none;dashed=1;html=1;" edge="1" parent="1">
          <mxGeometry width="50" height="50" relative="1" as="geometry">
            <mxPoint x="130" y="350" as="sourcePoint" />
            <mxPoint x="360" y="200" as="targetPoint" />
          </mxGeometry>
        </mxCell>
        <mxCell id="mbeKiCljW2zm7E6OZhqD-19" value="" style="endArrow=none;dashed=1;html=1;entryX=0.949;entryY=0.733;entryDx=0;entryDy=0;entryPerimeter=0;" edge="1" parent="1" target="mbeKiCljW2zm7E6OZhqD-1">
          <mxGeometry width="50" height="50" relative="1" as="geometry">
            <mxPoint x="600" y="360" as="sourcePoint" />
            <mxPoint x="650" y="310" as="targetPoint" />
          </mxGeometry>
        </mxCell>
        <mxCell id="mbeKiCljW2zm7E6OZhqD-20" value="" style="endArrow=none;dashed=1;html=1;" edge="1" parent="1">
          <mxGeometry width="50" height="50" relative="1" as="geometry">
            <mxPoint x="690" y="360" as="sourcePoint" />
            <mxPoint x="470" y="200" as="targetPoint" />
          </mxGeometry>
        </mxCell>
        <mxCell id="mbeKiCljW2zm7E6OZhqD-21" value="" style="endArrow=none;dashed=1;html=1;" edge="1" parent="1">
          <mxGeometry width="50" height="50" relative="1" as="geometry">
            <mxPoint x="650" y="360" as="sourcePoint" />
            <mxPoint x="470" y="200" as="targetPoint" />
          </mxGeometry>
        </mxCell>
        <mxCell id="mbeKiCljW2zm7E6OZhqD-22" value="Family&lt;br&gt;&lt;br&gt;&lt;br&gt;&lt;br&gt;&lt;br&gt;&lt;br&gt;&lt;br&gt;&lt;br&gt;&lt;br&gt;&lt;br&gt;&lt;br&gt;&lt;br&gt;&lt;br&gt;&lt;br&gt;&lt;br&gt;&lt;br&gt;&lt;br&gt;&lt;br&gt;&lt;br&gt;&lt;br&gt;&lt;br&gt;" style="ellipse;whiteSpace=wrap;html=1;fillColor=none;align=center;" vertex="1" parent="1">
          <mxGeometry x="117" y="600" width="550" height="355" as="geometry" />
        </mxCell>
        <mxCell id="mbeKiCljW2zm7E6OZhqD-23" value="User" style="shape=umlActor;verticalLabelPosition=bottom;verticalAlign=top;html=1;outlineConnect=0;fillColor=none;" vertex="1" parent="1">
          <mxGeometry x="240" y="720" width="30" height="60" as="geometry" />
        </mxCell>
        <mxCell id="mbeKiCljW2zm7E6OZhqD-24" value="User" style="shape=umlActor;verticalLabelPosition=bottom;verticalAlign=top;html=1;outlineConnect=0;fillColor=none;rotation=-75;" vertex="1" parent="1">
          <mxGeometry x="473" y="730" width="30" height="60" as="geometry" />
        </mxCell>
        <mxCell id="mbeKiCljW2zm7E6OZhqD-28" value="" style="endArrow=classic;html=1;entryX=0.5;entryY=1;entryDx=0;entryDy=0;" edge="1" parent="1" target="mbeKiCljW2zm7E6OZhqD-1">
          <mxGeometry relative="1" as="geometry">
            <mxPoint x="460" y="740" as="sourcePoint" />
            <mxPoint x="560" y="740" as="targetPoint" />
          </mxGeometry>
        </mxCell>
        <mxCell id="mbeKiCljW2zm7E6OZhqD-29" value="Upload Fall Message" style="shape=message;html=1;outlineConnect=0;" vertex="1" parent="mbeKiCljW2zm7E6OZhqD-28">
          <mxGeometry width="130" height="40" relative="1" as="geometry">
            <mxPoint x="-13.51" y="-7" as="offset" />
          </mxGeometry>
        </mxCell>
        <mxCell id="mbeKiCljW2zm7E6OZhqD-31" value="" style="endArrow=classic;html=1;entryX=0.5;entryY=0;entryDx=0;entryDy=0;entryPerimeter=0;exitX=0.5;exitY=1;exitDx=0;exitDy=0;" edge="1" parent="1" source="mbeKiCljW2zm7E6OZhqD-1" target="mbeKiCljW2zm7E6OZhqD-23">
          <mxGeometry relative="1" as="geometry">
            <mxPoint x="260" y="680" as="sourcePoint" />
            <mxPoint x="360" y="680" as="targetPoint" />
          </mxGeometry>
        </mxCell>
        <mxCell id="mbeKiCljW2zm7E6OZhqD-32" value="Notice Family Member" style="shape=message;html=1;outlineConnect=0;" vertex="1" parent="mbeKiCljW2zm7E6OZhqD-31">
          <mxGeometry width="130" height="50" relative="1" as="geometry">
            <mxPoint x="-90" y="-7" as="offset" />
          </mxGeometry>
        </mxCell>
      </root>
    </mxGraphModel>
  </diagram>
</mxfile>
